<?xml version="1.0" encoding="UTF-8" standalone="no"?>
<!-- Created with Inkscape (http://www.inkscape.org/) -->

<svg
   width="210mm"
   height="297mm"
   viewBox="0 0 210 297"
   version="1.1"
   id="svg5"
   inkscape:version="1.1.1 (3bf5ae0d25, 2021-09-20)"
   sodipodi:docname="logo guitar 2.svg"
   xmlns:inkscape="http://www.inkscape.org/namespaces/inkscape"
   xmlns:sodipodi="http://sodipodi.sourceforge.net/DTD/sodipodi-0.dtd"
   xmlns="http://www.w3.org/2000/svg"
   xmlns:svg="http://www.w3.org/2000/svg">
  <sodipodi:namedview
     id="namedview7"
     pagecolor="#ffffff"
     bordercolor="#666666"
     borderopacity="1.0"
     inkscape:pageshadow="2"
     inkscape:pageopacity="0.0"
     inkscape:pagecheckerboard="0"
     inkscape:document-units="mm"
     showgrid="false"
     inkscape:zoom="0.74118967"
     inkscape:cx="397.33419"
     inkscape:cy="561.93443"
     inkscape:window-width="1920"
     inkscape:window-height="1017"
     inkscape:window-x="-8"
     inkscape:window-y="-8"
     inkscape:window-maximized="1"
     inkscape:current-layer="layer1" />
  <defs
     id="defs2" />
  <g
     inkscape:label="Calque 1"
     inkscape:groupmode="layer"
     id="layer1">
    <path
       style="fill:#000000;stroke-width:0.264583"
       id="path217"
       d="m 76.079563,59.142976 c 0.194358,3.534254 -0.128153,7.062843 -0.490699,10.574702 -0.86506,6.827653 -2.997152,13.409544 -4.87431,20.007392 -2.616914,8.929963 -5.662961,17.72993 -8.930087,26.44083 -3.865697,9.98888 -7.99874,19.87405 -12.372593,29.65061 -0.695,1.48269 -1.379255,2.97046 -2.084994,4.44807 -1.514753,3.17143 -2.539778,5.27481 -4.238672,8.34872 -2.100898,3.80128 -4.422492,7.45736 -6.786137,11.09769 -2.83895,4.07078 -1.454983,2.12122 -4.145018,5.85356 0,0 3.198614,-1.38827 3.198614,-1.38827 v 0 c 2.592033,-3.70586 1.248688,-1.76759 4.025553,-5.81791 2.336033,-3.63861 4.621049,-7.29894 6.701825,-11.09222 1.730555,-3.15482 2.668137,-5.09265 4.200496,-8.34948 0.692766,-1.47239 1.361514,-2.95595 2.042268,-4.43393 4.356492,-9.78145 8.462243,-19.67499 12.339783,-29.65615 3.324773,-8.74989 6.468078,-17.576873 9.116467,-26.557789 1.930035,-6.640896 4.072451,-13.278281 5.02317,-20.146986 0.395846,-3.574322 0.753415,-7.151709 0.754629,-10.75214 0,0 -3.480295,1.773301 -3.480295,1.773301 z"
       sodipodi:insensitive="true" />
    <path
       style="fill:#000000;stroke-width:0.264583"
       id="path239"
       d="m 121.01364,60.995874 c -0.0897,2.54127 -0.0906,3.511465 -0.4275,6.433309 -0.23649,2.051064 -0.54309,4.093642 -0.85002,6.135352 -0.8623,5.736037 -1.71229,10.715095 -2.81782,16.438313 -0.56528,2.926408 -1.19264,5.840484 -1.78897,8.760725 -3.10493,14.978287 -6.99098,29.820387 -12.18419,44.219247 -0.94659,2.62455 -1.99235,5.21226 -2.988527,7.81839 -2.702581,6.69364 -5.809035,13.22134 -9.285562,19.54721 -2.831616,5.15239 -5.967484,10.1272 -9.085175,15.10822 -0.496652,0.78619 -4.027424,6.41253 -4.777909,7.47212 -0.468207,0.66104 -2.289564,1.59318 -1.533872,1.88495 2.561722,0.98905 2.407838,-1.36584 2.483829,-2.38109 0.06929,-0.92578 0.146862,-1.85092 0.220292,-2.77638 1.008081,-8.41392 1.392896,-16.99136 -0.166897,-25.371 -0.297846,-1.60012 -0.769082,-3.16304 -1.153625,-4.74457 -0.573635,-1.42366 -1.017879,-2.90658 -1.720906,-4.271 -2.005742,-3.8927 -5.132818,-7.22212 -8.565605,-9.89444 -2.685909,-2.09089 -3.756144,-2.48634 -6.744689,-4.05966 -4.496136,-2.13213 -9.31817,-3.4476 -14.284859,-3.82393 -3.723706,-0.28215 -4.688774,-0.0723 -8.472705,0.18974 -1.449385,0.1977 -2.902312,0.37097 -4.348154,0.5931 -2.241095,0.3443 -4.37288,0.76915 -6.589831,1.20133 -0.676681,0.13191 -1.351702,0.27241 -2.029319,0.39944 -1.045583,0.19599 -1.399361,0.0574 -1.000199,0.20126 -0.693559,0.67388 -2.07341,1.05464 -2.080678,2.02164 -0.0053,0.70217 1.377709,-0.2726 2.068479,-0.39869 0.763431,-0.13935 1.527721,-0.27445 2.293931,-0.39761 3.4918,-0.56127 6.986126,-0.91559 10.50705,-1.23826 10.573856,-0.72505 21.175495,-0.88743 31.762956,-1.34151 13.096526,-0.61658 26.166022,-1.9072 39.109825,-4.01067 2.74618,-0.44628 5.47864,-0.97324 8.21797,-1.45985 2.59203,-0.54938 5.19102,-1.06694 7.7761,-1.64815 5.20451,-1.17014 8.33321,-1.97789 13.41354,-3.45114 5.13365,-1.48872 10.21402,-3.16292 15.29566,-4.81787 6.91583,-2.34217 13.79812,-4.82614 20.32815,-8.11128 3.12356,-1.70927 6.18128,-3.53539 9.26181,-5.31982 0.50988,-0.29536 -2.03423,1.19045 -1.52319,0.8971 4.50143,-2.58392 3.11529,-1.71051 5.50054,-3.25416 0,0 -3.5368,1.37737 -3.5368,1.37737 v 0 c -0.32383,0.20743 -1.3166,0.79195 -0.97147,0.6223 0.64726,-0.31815 2.50475,-1.43134 1.88095,-1.06935 -1.58281,0.91851 -3.17201,1.82595 -4.75802,2.73892 0.41775,-0.23239 1.66103,-0.94666 1.25326,-0.69718 -0.78774,0.48196 -3.54903,2.03291 -4.30677,2.46117 -0.77569,0.40093 -1.54167,0.82123 -2.32705,1.20281 -5.87297,2.85333 -12.06639,4.98793 -18.21672,7.14582 -5.15856,1.71073 -10.30585,3.46553 -15.51837,5.00773 -4.8441,1.43319 -8.59788,2.43368 -13.5472,3.5757 -2.59643,0.59911 -5.20905,1.12573 -7.81357,1.68859 -2.73532,0.48701 -5.46373,1.01463 -8.20598,1.46104 -12.861072,2.09361 -25.851259,3.36971 -38.870627,3.87212 -10.50281,0.36688 -21.016708,0.47609 -31.507242,1.13543 -3.44951,0.26453 -6.880963,0.54396 -10.304795,1.05112 -0.756664,0.11208 -1.509268,0.25007 -2.264383,0.37215 -0.653825,0.1057 -1.356694,0.0433 -1.962423,0.31119 -1.497768,0.66235 -2.842149,1.62796 -4.263223,2.44193 0.07247,0.0346 0.137626,0.11288 0.217405,0.10376 0.399701,-0.0457 0.785238,-0.17548 1.177852,-0.26325 0.708707,-0.15843 1.416705,-0.32006 2.126109,-0.47534 3.664074,-0.80199 7.342957,-1.55526 11.077447,-1.95541 3.692837,-0.25779 4.733677,-0.46908 8.372991,-0.19851 4.930047,0.36653 9.73373,1.66714 14.22232,3.72007 2.933758,1.52166 4.081404,1.95841 6.733376,3.97326 3.442708,2.61562 6.526032,5.87124 8.539345,9.72888 0.702241,1.34554 1.156205,2.80673 1.734309,4.21009 0.396878,1.56196 0.882428,3.10403 1.190636,4.68587 1.639548,8.41484 1.17413,17.04408 -0.182431,25.45648 -0.135874,0.98757 -0.386249,1.96606 -0.407619,2.96271 -0.01087,0.50755 -0.186373,1.58675 0.312123,1.49068 2.750122,-0.53002 3.904459,-2.14015 5.203942,-4.12139 0.3234,-0.49307 4.556019,-7.35252 4.577704,-7.38762 3.056967,-4.96284 6.132565,-9.9208 8.90307,-15.0524 3.403473,-6.30399 6.439366,-12.80675 9.052374,-19.478 0.9701,-2.59753 1.98749,-5.17788 2.9103,-7.79258 5.09452,-14.43484 9.04769,-29.26596 12.16388,-44.24589 2.1593,-10.517894 4.33621,-21.049879 6.04617,-31.652871 0.30936,-1.918245 0.65813,-4.618757 0.93267,-6.69635 0,0 -3.48347,1.738585 -3.48347,1.738585 z"
       sodipodi:insensitive="true" />
    <text
       xml:space="preserve"
       style="font-style:normal;font-variant:normal;font-weight:normal;font-stretch:normal;font-size:21.248px;line-height:125%;font-family:Bebas;-inkscape-font-specification:'Bebas, Normal';font-variant-ligatures:normal;font-variant-caps:normal;font-variant-numeric:normal;font-variant-east-asian:normal;letter-spacing:0px;word-spacing:0px;fill:#000000;fill-opacity:1;stroke:#000000;stroke-width:0.295111px;stroke-linecap:butt;stroke-linejoin:miter;stroke-opacity:1"
       x="13.617528"
       y="217.06102"
       id="text1299"
       transform="scale(0.98889912,1.0112255)"
       sodipodi:insensitive="true"><tspan
         sodipodi:role="line"
         id="tspan1297"
         style="font-style:normal;font-variant:normal;font-weight:normal;font-stretch:normal;font-size:21.248px;font-family:Bebas;-inkscape-font-specification:'Bebas, Normal';font-variant-ligatures:normal;font-variant-caps:normal;font-variant-numeric:normal;font-variant-east-asian:normal;fill:#000000;fill-opacity:1;stroke-width:0.295111px"
         x="13.617528"
         y="217.06102">Horizon Custom Guitars</tspan></text>
  </g>
</svg>
